PathFileType	4	(X/Y/Z)	C:/Users/empri/Downloads/Take 2024-05-09 02.19.42 PM.trc
DataRate	CameraRate	NumFrames	NumMarkers	Units	OrigDataRate	OrigDataStartFrame	OrigNumFrames
240	240	17	9	mm	240	479	1279
Frame#	Time	C7	CLAV	RELB	RFIN	RFRM	RSHO	RUPA	RWRA	RWRB
X1	Y1	Z1	X2	Y2	Z2	X3	Y3	Z3	X4	Y4	Z4	X5	Y5	Z5	X6	Y6	Z6	X7	Y7	Z7	X8	Y8	Z8	X9	Y9	Z9
479	1.996	-149.921	1548.8	-61.9381	29.1383	1386.42	-124.608	21.0112	1427.94	309.289	140.474	1641.32	195.707	68.2591	1493.25	336.085	-33.1061	1539.5	55.3457	3.97965	1477.77	204.765	159.261	1570.39	234.877	147.398	1598.15	323.784
480	2	-150	1548.83	-61.9343	29.0859	1386.46	-124.612	21.1195	1428.1	309.242	140.507	1641.57	195.788	68.3545	1493.41	336.057	-33.1587	1539.58	55.3119	3.98299	1477.88	204.713	159.35	1570.65	234.905	147.469	1598.35	323.816
481	2.004	-150.057	1548.85	-61.9431	29.0397	1386.48	-124.599	21.2606	1428.3	309.214	140.578	1641.85	195.855	68.478	1493.58	336.063	-33.2331	1539.69	55.2794	4.00907	1478.02	204.656	159.45	1570.93	234.926	147.556	1598.59	323.889
482	2.008	-150.134	1548.89	-61.9734	28.9832	1386.52	-124.602	21.4112	1428.5	309.168	140.675	1642.16	195.891	68.5717	1493.84	336.064	-33.2993	1539.78	55.2395	4.01527	1478.16	204.594	159.557	1571.24	234.981	147.623	1598.83	323.938
483	2.013	-150.23	1548.9	-61.9853	28.9218	1386.57	-124.606	21.6044	1428.79	309.124	140.781	1642.62	195.949	68.7067	1494.17	335.995	-33.369	1539.89	55.1854	4.04718	1478.37	204.526	159.701	1571.67	235.045	147.72	1599.19	324
484	2.017	-150.298	1548.89	-61.9884	28.876	1386.61	-124.609	21.7639	1429.05	309.106	140.877	1643	196.018	68.8389	1494.48	335.974	-33.423	1539.99	55.1275	4.06537	1478.53	204.469	159.844	1572.06	235.102	147.837	1599.55	324.082
485	2.021	-150.382	1548.91	-61.9941	28.8267	1386.65	-124.616	21.9464	1429.35	309.074	141.029	1643.41	196.089	69.0284	1494.75	335.95	-33.4798	1540.11	55.0772	4.08956	1478.72	204.407	159.987	1572.5	235.126	147.937	1599.92	324.105
486	2.025	-150.492	1548.97	-62.0089	28.7737	1386.71	-124.635	22.1614	1429.67	308.99	141.213	1643.89	196.145	69.2088	1495.09	335.934	-33.5501	1540.24	55.0221	4.10209	1478.92	204.343	160.165	1572.98	235.153	147.941	1600.32	324.107
487	2.029	-150.561	1548.97	-61.9895	28.7199	1386.77	-124.637	22.3709	1430	308.912	141.406	1644.42	196.178	69.3537	1495.49	335.93	-33.596	1540.4	54.9669	4.11378	1479.14	204.281	160.354	1573.47	235.209	148.031	1600.83	324.211
488	2.033	-150.665	1549.02	-61.994	28.6545	1386.83	-124.642	22.589	1430.36	308.896	141.538	1644.97	196.236	69.5379	1495.9	335.925	-33.6493	1540.55	54.9053	4.13157	1479.36	204.209	160.549	1573.99	235.273	148.145	1601.28	324.26
489	2.038	-150.787	1549.06	-61.9837	28.5805	1386.9	-124.645	22.8978	1430.85	308.808	141.751	1645.7	196.336	69.7608	1496.52	335.921	-33.7133	1540.75	54.8483	4.14964	1479.67	204.12	160.818	1574.73	235.325	148.34	1601.99	324.346
490	2.042	-150.87	1549.06	-61.9696	28.5338	1386.96	-124.652	23.1632	1431.3	308.734	141.951	1646.34	196.379	69.9921	1497.01	335.84	-33.7945	1540.93	54.7906	4.15592	1479.97	204.033	161.016	1575.41	235.361	148.439	1602.61	324.377
491	2.046	-151.008	1549.13	-62.004	28.4841	1387.04	-124.671	23.4103	1431.78	308.698	142.123	1647.01	196.466	70.1928	1497.55	335.806	-33.9102	1541.1	54.7275	4.18243	1480.3	203.944	161.186	1576.05	235.392	148.614	1603.27	324.509
492	2.05	-151.111	1549.16	-62.0047	28.4412	1387.12	-124.687	23.6849	1432.3	308.626	142.271	1647.72	196.536	70.4675	1498.14	335.768	-33.9448	1541.23	54.6406	4.24158	1480.62	203.85	161.463	1576.82	235.444	148.87	1603.94	324.575
493	2.054	-151.219	1549.19	-62.0122	28.3825	1387.23	-124.708	23.9791	1432.89	308.558	142.481	1648.49	196.603	70.7138	1498.82	335.712	-34.0285	1541.41	54.5688	4.26863	1480.93	203.768	161.722	1577.54	235.547	148.944	1604.64	324.538
494	2.058	-151.315	1549.22	-62.0222	28.3294	1387.3	-124.721	24.2718	1433.48	308.535	142.67	1649.25	196.685	70.9437	1499.5	335.732	-34.1159	1541.6	54.4617	4.30994	1481.29	203.672	161.982	1578.37	235.591	149.157	1605.46	324.69
495	2.063	-151.433	1549.24	-62.0194	28.2654	1387.39	-124.745	24.6881	1434.34	308.482	142.86	1650.27	196.768	71.317	1500.46	335.712	-34.2264	1541.82	54.3185	4.2065	1481.84	203.572	162.297	1579.47	235.685	149.467	1606.46	324.752
